# xmcd
#
# Track frame offsets: 
#        183
#        24173
#        41775
#        54770
#        77970
#        113563
#        126993
#        145043
#        167640
#        188020
#        207203
#        224133
#
# Disc length: 3365 seconds
#
# Revision: 3
# Processed by: cddbd v1.5.2PL0 Copyright (c) Steve Scherf et al.
# Submitted via: ExactAudioCopy v0.95b4
#
DISCID=a40d230c
DTITLE=Muddy Waters - Got My Mojo Working
DYEAR=1994
DGENRE=Blues
TTITLE0=Dust My Broom
TTITLE1=Walking Blues
TTITLE2=I'm A Hoochie Coochie Man
TTITLE3=Walikng Through The Park
TTITLE4=Howlin' Wolf
TTITLE5=Blow Wind Blow
TTITLE6=Honey Bee
TTITLE7=Can't Get No Grindin'
TTITLE8=She's Nineteen Years Old
TTITLE9=Rollin' And Tumblin'
TTITLE10=Got My Mojo Workin'
TTITLE11=Everything Gonna Be Alright
EXTD=
EXTT0=
EXTT1=
EXTT2=
EXTT3=
EXTT4=
EXTT5=
EXTT6=
EXTT7=
EXTT8=
EXTT9=
EXTT10=
EXTT11=
PLAYORDER=
